<svg height="512" width="512" xmlns="http://www.w3.org/2000/svg"><path d="M205 482h-5v-15c0-24.813-20.187-45-45-45h-35v-45c0-8.271 6.729-15 15-15h6v-10a64.736 64.736 0 013.162-20H135c-24.813 0-45 20.187-45 45v45H65c-24.813 0-45 20.187-45 45v15h-5c-8.284 0-15 6.716-15 15s6.716 15 15 15h40c8.284 0 15-6.716 15-15s-6.716-15-15-15h-5v-15c0-8.271 6.729-15 15-15h90c8.271 0 15 6.729 15 15v15h-5c-8.284 0-15 6.716-15 15s6.716 15 15 15h40c8.284 0 15-6.716 15-15s-6.716-15-15-15zm292 0h-5v-15c0-24.813-20.187-45-45-45h-25v-45c0-24.813-20.187-45-45-45h-9.162A64.736 64.736 0 01371 352v10h6c8.271 0 15 6.729 15 15v45h-35c-24.813 0-45 20.187-45 45v15h-5c-8.284 0-15 6.716-15 15s6.716 15 15 15h40c8.284 0 15-6.716 15-15s-6.716-15-15-15h-5v-15c0-8.271 6.729-15 15-15h90c8.271 0 15 6.729 15 15v15h-5c-8.284 0-15 6.716-15 15s6.716 15 15 15h40c8.284 0 15-6.716 15-15s-6.716-15-15-15zM306 317H206c-19.33 0-35 15.67-35 35v10c0 8.284 6.716 15 15 15h140c8.284 0 15-6.716 15-15v-10c0-19.33-15.67-35-35-35zM110.559 192.792c-8.124 1.625-13.392 9.527-11.768 17.65 1.427 7.131 7.689 12.061 14.693 12.061.975 0 1.965-.096 2.957-.294 22.641-4.528 42.206-17.755 55.108-35.955 11.968 20.687 31.32 36.563 54.451 44.036v12.655c0 15.165-2.912 30.105-8.468 44.056h76.936A119.064 119.064 0 01286 242.945V230.29c23.131-7.473 42.482-23.349 54.451-44.036 12.902 18.2 32.467 31.427 55.108 35.955.993.199 1.982.294 2.957.294 7.004 0 13.267-4.931 14.693-12.061 1.624-8.124-3.644-16.026-11.768-17.65-21.382-4.277-38.622-20.262-44.83-40.816 32.024-4.007 56.889-31.383 56.889-64.476v-30c0-19.299-15.701-35-35-35h-25V15c0-8.284-6.716-15-15-15h-165c-8.284 0-15 6.716-15 15v7.5h-25c-19.299 0-35 15.701-35 35v30c0 33.093 24.865 60.469 56.889 64.476-6.209 20.553-23.449 36.539-44.83 40.816zM353.5 52.5h25c2.757 0 5 2.243 5 5v30c0 17.601-13.062 32.203-30 34.637zm-225 35v-30c0-2.757 2.243-5 5-5h25v69.637c-16.938-2.434-30-17.036-30-34.637z"/></svg>