<svg xmlns="http://www.w3.org/2000/svg" height="1768pt" viewBox="-30 0 1768 1768.75" width="1768pt"><path d="M1445.293 1583.453a30.005 30.005 0 01-11.621 2.324H.375v60.996h1707.758v-322.832l-252.899 252.899a30.018 30.018 0 01-9.941 6.613zm0 0"/><path d="M1464.168 1481.664l200.844-200.844h-200.844zM.375 1707.758h1707.758v60.992H.375zM1494.66 182.973v121.984h-60.988V182.973h-243.965v121.984h-60.992V182.973H884.75v121.984h-60.992V182.973H579.793v121.984h-60.992V182.973H274.836v121.984H213.84V182.973H.375V426.94h1707.758V182.973zm0 0"/><path d="M.375 1524.785h1402.8V1250.32c0-16.843 13.645-30.492 30.497-30.492h274.46V487.93H.376zM1372.68 579.418h182.976v182.98H1372.68zm0 304.957h182.976v182.973H1372.68zm-304.957-304.957h182.972v182.98h-182.972zm0 304.957h182.972v182.973h-182.972zm0 304.957h182.972v182.973h-182.972zm-304.95-609.914h182.97v182.98h-182.97zm0 304.957h182.97v182.973h-182.97zm0 304.957h182.97v182.973h-182.97zM457.805 579.418h182.98v182.98h-182.98zm0 304.957h182.98v182.973h-182.98zm0 304.957h182.98v182.973h-182.98zM152.852 884.375h182.976v182.973H152.852zm0 304.957h182.976v182.973H152.852zM823.758 0h60.992v121.977h-60.992zM518.8 0h60.993v121.977h-60.992zM213.84 0h60.996v121.977H213.84zm1219.832 0h60.988v121.977h-60.988zm-304.957 0h60.992v121.977h-60.992zm0 0"/></svg>