<svg xmlns="http://www.w3.org/2000/svg" viewBox="0 0 512 512"><path d="M406 482H285.995C418.983 304.705 451 276.439 451 195 451 87.48 363.52 0 256 0S61 87.48 61 195c0 81.306 31.742 109.323 165.007 287H106c-8.291 0-15 6.709-15 15s6.709 15 15 15h300c8.291 0 15-6.709 15-15s-6.709-15-15-15zM121 195c0-74.443 60.557-135 135-135s135 60.557 135 135c0 75.604-63.977 135-135 135-71.228 0-135-59.594-135-135z"/><path d="M256 120c-33.091 0-60 26.909-60 60s26.909 60 60 60 60-26.909 60-60-26.909-60-60-60z"/><path d="M322.592 240c-16.485 18.279-40.096 30-66.592 30-26.496 0-50.107-11.721-66.592-30-5.601 6.211-10.074 13.352-13.832 20.901C195.017 284.421 223.927 300 256 300s60.983-15.58 80.424-39.1c-3.757-7.549-8.231-14.689-13.832-20.9z"/></svg>