<svg height="512" width="512" xmlns="http://www.w3.org/2000/svg"><path d="M457.664 15.838C447.359 5.62 433.702 0 419.188 0l-.198.001c-20.921.074-39.081 11.953-48.189 29.278v-14.3c0-8.272-6.716-14.979-15-14.979H156.199c-8.284 0-15 6.706-15 14.979v14.299C132.092 11.953 113.932.075 93.01.001L92.812 0C78.299 0 64.641 5.62 54.336 15.838c-10.351 10.263-16.08 23.939-16.132 38.559v.116c0 37.185 10.035 72.189 29.02 101.227 18.878 28.875 45.547 49.341 75.046 57.615 8.41 2.39 13.305 11.166 10.912 19.565-2.393 8.398-11.178 13.286-19.593 10.896-7.963-2.262-16.265 2.35-18.532 10.308-2.267 7.957 2.354 16.242 10.322 18.506a45.737 45.737 0 0012.534 1.753c18.023-.002 34.778-10.713 42.089-27.582a115.399 115.399 0 0012.431 9.543 114.53 114.53 0 0018.566 9.995v17.071h90v-17.07c6.485-2.755 12.7-6.1 18.566-9.995a115.498 115.498 0 0012.431-9.543c7.311 16.872 24.063 27.583 42.089 27.582 4.143 0 8.357-.566 12.534-1.753 7.968-2.264 12.589-10.549 10.322-18.506-2.268-7.957-10.569-12.572-18.532-10.308-8.411 2.39-17.199-2.498-19.593-10.897-2.393-8.398 2.502-17.175 10.863-19.551 29.548-8.288 56.217-28.754 75.095-57.629 18.985-29.038 29.021-64.042 29.021-101.227v-.169c-.051-14.567-5.78-28.243-16.131-38.506zM92.345 139.364c-15.568-23.811-24.141-53.945-24.141-84.85v-.064c.023-6.565 2.605-12.728 7.271-17.354 4.665-4.626 10.838-7.182 17.429-7.137 13.572.048 24.575 11.113 24.527 24.666-.029 8.272 6.663 15.002 14.947 15.031h.054c3.276 0 6.299-1.062 8.768-2.844v94.074c0 7.203.672 14.309 1.974 21.241-19.697-7.488-37.539-22.436-50.829-42.763zM271 185.368c0 8.272-6.716 14.979-15 14.979s-15-6.706-15-14.979v-78.54h-5.017c-8.284 0-15-6.706-15-14.979s6.716-14.979 15-14.979H256c8.284 0 15 6.706 15 14.979zM443.796 54.513c0 30.906-8.573 61.04-24.141 84.85-13.282 20.315-31.111 35.257-50.827 42.758a114.99 114.99 0 001.973-21.237V66.811a14.923 14.923 0 008.768 2.843h.054c8.284-.029 14.977-6.759 14.947-15.031-.048-13.553 10.955-24.618 24.526-24.666h.089c6.541 0 12.696 2.533 17.34 7.137 4.665 4.626 7.247 10.789 7.271 17.302zm-48.165 338.193H116.369c-8.284 0-15 6.706-15 14.979v44.401h309.263v-44.401c-.001-8.273-6.717-14.979-15.001-14.979zm20 89.337H96.369c-8.284 0-15 6.706-15 14.979S88.085 512 96.369 512h319.263c8.284 0 15-6.706 15-14.979s-6.717-14.978-15.001-14.978zM211 328.975a90.624 90.624 0 00-33.815 33.773h157.629a90.632 90.632 0 00-33.815-33.773v-15.607h-90v15.607z"/><path d="M206 283.411c-8.284 0-15 6.706-15 14.979s6.716 14.979 15 14.979h5v-29.957h-5zm100 29.958c8.284 0 15-6.706 15-14.979s-6.716-14.979-15-14.979h-5v29.957h5z"/></svg>