<svg height="512" viewBox="0 0 64 64" width="512" xmlns="http://www.w3.org/2000/svg"><path d="M7 41c0-1.373-.251-2.668-.693-3.727C5.491 38.297 5 39.591 5 41s.491 2.703 1.307 3.727C6.749 43.668 7 42.373 7 41zm13 8H4c-.552 0-1 .449-1 1v11h18V50c0-.551-.448-1-1-1zm17-21.414l1.458-1.458a8.022 8.022 0 00-1.146-2.026L35.414 26zm1.972 1.971c.013-.185.028-.369.028-.557s-.015-.372-.028-.557l-.558.557zm-9.564 2.444l1.586-1.586 1.586 1.586-1.586 1.586zm-3.001-2.999l1.586-1.586 1.586 1.586-1.586 1.586zm3.002-3l1.586-1.586 1.586 1.586-1.586 1.586zM59 47a5.96 5.96 0 00-1.307-3.727C57.251 44.332 57 45.627 57 47s.251 2.668.693 3.727A5.96 5.96 0 0059 47zm-6-6a5.96 5.96 0 00-3.131.891C50.591 43.309 51 45.111 51 47s-.409 3.691-1.131 5.109c.913.561 1.983.891 3.131.891s2.218-.33 3.131-.891C55.409 50.691 55 48.889 55 47s.409-3.691 1.131-5.109A5.96 5.96 0 0053 41zm3.984-33.398a5.008 5.008 0 00-4.586-4.586L44.414 11 49 15.586zm-24.576 21.4l1.586-1.586 1.586 1.586-1.586 1.586zM17 41a5.96 5.96 0 00-1.307-3.727C15.251 38.332 15 39.627 15 41s.251 2.668.693 3.727A5.96 5.96 0 0017 41zm-6 6a5.96 5.96 0 003.131-.891C13.409 44.691 13 42.889 13 41s.409-3.691 1.131-5.109C13.218 35.33 12.148 35 11 35s-2.218.33-3.131.891C8.591 37.309 9 39.111 9 41s-.409 3.691-1.131 5.109A5.96 5.96 0 0011 47zm37.307 3.727C48.749 49.668 49 48.373 49 47s-.251-2.668-.693-3.727C47.491 44.297 47 45.591 47 47s.491 2.703 1.307 3.727zM37 30.414L35.414 32l1.898 1.898a7.975 7.975 0 001.146-2.026zM32.414 35l1.458 1.458a8.022 8.022 0 002.026-1.146L34 33.414zm-1.972 1.972c.185.013.37.028.558.028s.373-.015.558-.028L31 36.414zM60 55H44c-.552 0-1 .449-1 1v5h18v-5c0-.551-.448-1-1-1z"/><path d="M43.006 32.452l4.856-15.176-5.138-5.138-15.176 4.856A12.257 12.257 0 0019 28.705C19 35.484 24.516 41 31.295 41a12.257 12.257 0 0011.711-8.548zM42 16a2 2 0 11.001 3.999A2 2 0 0142 16zM21 29c0-5.514 4.486-10 10-10s10 4.486 10 10-4.486 10-10 10-10-4.486-10-10zm19 14H24c-.552 0-1 .449-1 1v17h18V44c0-.551-.448-1-1-1z"/><path d="M26.102 35.312a8.016 8.016 0 002.025 1.146L29.586 35 28 33.414zm-3.074-6.869c-.013.185-.028.369-.028.557s.015.372.028.557l.558-.557zM26.586 26l-1.898-1.898a7.945 7.945 0 00-1.146 2.026L25 27.586zM25 30.414l-1.458 1.458a8.005 8.005 0 001.146 2.026L26.586 32zm6.558-9.386c-.185-.013-.37-.028-.558-.028s-.373.015-.558.028l.558.558zM29.586 23l-1.458-1.458a8 8 0 00-2.025 1.146L28 24.586zm6.312-.311a7.975 7.975 0 00-2.026-1.146L32.414 23 34 24.586z"/></svg>