<svg xmlns="http://www.w3.org/2000/svg" viewBox="0 0 512 512"><path d="M414.812 200.787c29.039 14.577 61.482 23.32 95.79 24.72C496.605 107.805 402.572 14.32 284.617 1.165c1.497 31.165 9.06 60.765 21.541 87.639l28.079-9.361c11.748-3.919 24.451 2.434 28.368 14.184 3.916 11.75-2.434 24.451-14.184 28.368l-18.989 6.33a238.043 238.043 0 0046.319 47.805l5.814-17.443c3.917-11.748 16.618-18.103 28.368-14.182 11.75 3.917 18.099 16.616 14.184 28.368l-9.305 27.914zM203.664 415.464l-25.723 8.574a22.445 22.445 0 01-7.096 1.156c-9.391 0-18.14-5.943-21.272-15.34-3.917-11.75 2.432-24.451 14.182-28.368l15.658-5.219a230.378 230.378 0 00-46.493-45.497l-5.858 17.572c-3.132 9.398-11.883 15.341-21.274 15.341a22.41 22.41 0 01-7.094-1.156c-11.75-3.917-18.101-16.618-14.184-28.368l8.893-26.678c-28.069-12.937-59.189-20.333-91.957-20.806 14.061 117.281 107.597 210.463 225.041 223.991-.648-34.062-8.772-66.326-22.823-95.202z"/><path d="M400.505 243.704l-1.393 4.182c-3.134 9.397-11.883 15.34-21.274 15.34-2.35 0-4.742-.372-7.094-1.156-11.75-3.917-18.099-16.618-14.184-28.368l4.304-12.912a283.127 283.127 0 01-75.71-77.704l-11.747 3.916a22.433 22.433 0 01-7.094 1.156c-9.391 0-18.14-5.943-21.274-15.34-3.917-11.75 2.434-24.451 14.184-28.368l4.156-1.386C249.346 71.368 241.018 36.61 239.685.096 110.56 8.25 7.082 112.395 0 241.802c38.246.262 74.647 8.417 107.658 22.92l1.858-5.575c3.917-11.75 16.615-18.099 28.368-14.184 11.75 3.917 18.101 16.618 14.184 28.368l-4.378 13.133a275.515 275.515 0 0176.303 74.944l14.774-4.925c11.751-3.92 24.451 2.434 28.368 14.184 3.916 11.75-2.434 24.451-14.184 28.368l-6.441 2.147c15.552 33.786 24.397 71.262 24.848 110.723C400.83 504.221 504.746 400.04 512 270.457c-39.774-1.166-77.495-10.65-111.495-26.753z"/></svg>