<svg xmlns="http://www.w3.org/2000/svg" height="1768pt" version="1.1" viewBox="-30 0 1768 1768.7498" width="1768pt">
<g id="surface1">
<path d="M 1445.292969 1583.453125 C 1441.601562 1585 1437.664062 1585.777344 1433.671875 1585.777344 L 0.375 1585.777344 L 0.375 1646.773438 L 1708.132812 1646.773438 L 1708.132812 1323.941406 L 1455.234375 1576.839844 C 1452.386719 1579.6875 1449.007812 1581.949219 1445.292969 1583.453125 Z M 1445.292969 1583.453125 " style=" stroke:none;fill-rule:nonzero;fill:rgb(0%,0%,0%);fill-opacity:1;" />
<path d="M 1464.167969 1481.664062 L 1665.011719 1280.820312 L 1464.167969 1280.820312 Z M 1464.167969 1481.664062 " style=" stroke:none;fill-rule:nonzero;fill:rgb(0%,0%,0%);fill-opacity:1;" />
<path d="M 0.375 1707.757812 L 1708.132812 1707.757812 L 1708.132812 1768.75 L 0.375 1768.75 Z M 0.375 1707.757812 " style=" stroke:none;fill-rule:nonzero;fill:rgb(0%,0%,0%);fill-opacity:1;" />
<path d="M 1494.660156 182.972656 L 1494.660156 304.957031 L 1433.671875 304.957031 L 1433.671875 182.972656 L 1189.707031 182.972656 L 1189.707031 304.957031 L 1128.714844 304.957031 L 1128.714844 182.972656 L 884.75 182.972656 L 884.75 304.957031 L 823.757812 304.957031 L 823.757812 182.972656 L 579.792969 182.972656 L 579.792969 304.957031 L 518.800781 304.957031 L 518.800781 182.972656 L 274.835938 182.972656 L 274.835938 304.957031 L 213.839844 304.957031 L 213.839844 182.972656 L 0.375 182.972656 L 0.375 426.941406 L 1708.132812 426.941406 L 1708.132812 182.972656 Z M 1494.660156 182.972656 " style=" stroke:none;fill-rule:nonzero;fill:rgb(0%,0%,0%);fill-opacity:1;" />
<path d="M 0.375 1524.785156 L 1403.175781 1524.785156 L 1403.175781 1250.320312 C 1403.175781 1233.476562 1416.820312 1219.828125 1433.671875 1219.828125 L 1708.132812 1219.828125 L 1708.132812 487.929688 L 0.375 487.929688 Z M 1372.679688 579.417969 L 1555.65625 579.417969 L 1555.65625 762.398438 L 1372.679688 762.398438 Z M 1372.679688 884.375 L 1555.65625 884.375 L 1555.65625 1067.347656 L 1372.679688 1067.347656 Z M 1067.722656 579.417969 L 1250.695312 579.417969 L 1250.695312 762.398438 L 1067.722656 762.398438 Z M 1067.722656 884.375 L 1250.695312 884.375 L 1250.695312 1067.347656 L 1067.722656 1067.347656 Z M 1067.722656 1189.332031 L 1250.695312 1189.332031 L 1250.695312 1372.304688 L 1067.722656 1372.304688 Z M 762.773438 579.417969 L 945.742188 579.417969 L 945.742188 762.398438 L 762.773438 762.398438 Z M 762.773438 884.375 L 945.742188 884.375 L 945.742188 1067.347656 L 762.773438 1067.347656 Z M 762.773438 1189.332031 L 945.742188 1189.332031 L 945.742188 1372.304688 L 762.773438 1372.304688 Z M 457.804688 579.417969 L 640.785156 579.417969 L 640.785156 762.398438 L 457.804688 762.398438 Z M 457.804688 884.375 L 640.785156 884.375 L 640.785156 1067.347656 L 457.804688 1067.347656 Z M 457.804688 1189.332031 L 640.785156 1189.332031 L 640.785156 1372.304688 L 457.804688 1372.304688 Z M 152.851562 884.375 L 335.828125 884.375 L 335.828125 1067.347656 L 152.851562 1067.347656 Z M 152.851562 1189.332031 L 335.828125 1189.332031 L 335.828125 1372.304688 L 152.851562 1372.304688 Z M 152.851562 1189.332031 " style=" stroke:none;fill-rule:nonzero;fill:rgb(0%,0%,0%);fill-opacity:1;" />
<path d="M 823.757812 0 L 884.75 0 L 884.75 121.976562 L 823.757812 121.976562 Z M 823.757812 0 " style=" stroke:none;fill-rule:nonzero;fill:rgb(0%,0%,0%);fill-opacity:1;" />
<path d="M 518.800781 0 L 579.792969 0 L 579.792969 121.976562 L 518.800781 121.976562 Z M 518.800781 0 " style=" stroke:none;fill-rule:nonzero;fill:rgb(0%,0%,0%);fill-opacity:1;" />
<path d="M 213.839844 0 L 274.835938 0 L 274.835938 121.976562 L 213.839844 121.976562 Z M 213.839844 0 " style=" stroke:none;fill-rule:nonzero;fill:rgb(0%,0%,0%);fill-opacity:1;" />
<path d="M 1433.671875 0 L 1494.660156 0 L 1494.660156 121.976562 L 1433.671875 121.976562 Z M 1433.671875 0 " style=" stroke:none;fill-rule:nonzero;fill:rgb(0%,0%,0%);fill-opacity:1;" />
<path d="M 1128.714844 0 L 1189.707031 0 L 1189.707031 121.976562 L 1128.714844 121.976562 Z M 1128.714844 0 " style=" stroke:none;fill-rule:nonzero;fill:rgb(0%,0%,0%);fill-opacity:1;" />
</g>
</svg>