<svg id="Capa_1" enable-background="new 0 0 512 512" height="512" viewBox="0 0 512 512" width="512" xmlns="http://www.w3.org/2000/svg"><g><g><path d="m136 152c-24.813 0-45-20.187-45-45s20.187-45 45-45 45 20.187 45 45-20.187 45-45 45z"/></g><g><path d="m181 452h-90v-128.787l-30-30v-66.213c0-41.355 33.645-75 75-75s75 33.645 75 75v66.213l-30 30z"/></g><g><path d="m376 152c-24.813 0-45-20.187-45-45s20.187-45 45-45 45 20.187 45 45-20.187 45-45 45z"/></g><g><path d="m421 452h-90v-128.787l-30-30v-66.213c0-41.355 33.645-75 75-75s75 33.645 75 75v66.213l-30 30z"/></g><g><path d="m241 0h30v62h-30z"/></g><g><path d="m241 92h30v60h-30z"/></g><g><path d="m241 182h30v60h-30z"/></g><g><path d="m241 272h30v60h-30z"/></g><g><path d="m241 362h30v60h-30z"/></g><g><path d="m241 452h30v60h-30z"/></g></g></svg>