<svg height="1065pt" viewBox="-33 -67 1065.0008 1065" width="1065pt" xmlns="http://www.w3.org/2000/svg"><path d="m414.113281 478.3125c-9.179687 0-16.628906 7.445312-16.628906 16.628906v33.285156c0 9.1875 7.449219 16.632813 16.628906 16.632813 9.199219 0 16.644531-7.445313 16.644531-16.632813v-33.285156c0-9.183594-7.445312-16.628906-16.644531-16.628906zm0 0"/><path d="m380.839844 694.597656h99.824218v149.730469h-99.824218zm0 0"/><path d="m513.941406 694.597656h99.824219v149.730469h-99.824219zm0 0"/><path d="m513.941406 881.410156c.03125 25.457032 20.652344 46.078125 46.105469 46.101563h7.613281c25.453125-.023438 46.078125-20.644531 46.105469-46.101563v-3.804687h-99.824219zm0 0"/><path d="m380.839844 881.410156c.03125 25.457032 20.65625 46.078125 46.105468 46.101563h7.617188c25.457031-.023438 46.078125-20.644531 46.101562-46.101563v-3.804687h-99.824218zm0 0"/><path d="m181.195312 511.589844c0-18.382813-14.890624-33.277344-33.269531-33.277344h-21.945312c-6.261719.015625-11.320313 5.085938-11.332031 11.351562v33.566407c.058593 11.929687 9.703124 21.578125 21.628906 21.628906h11.648437c18.378907 0 33.269531-14.898437 33.269531-33.269531zm0 0"/><path d="m613.765625 112.289062c0 64.324219-52.148437 116.460938-116.464844 116.460938-64.3125 0-116.460937-52.136719-116.460937-116.460938 0-64.316406 52.148437-116.457031 116.460937-116.457031 64.316407 0 116.464844 52.140625 116.464844 116.457031zm0 0"/><path d="m663.445312 316.492188c-34.195312-35.1875-81.292968-54.871094-130.351562-54.464844h-71.542969c-49.0625-.410156-96.164062 19.265625-130.347656 54.457031l-11.484375 12.085937h355.171875zm0 0"/><path d="m868.625 478.3125h-21.941406c-18.375 0-33.273438 14.894531-33.273438 33.277344 0 18.371094 14.898438 33.269531 33.273438 33.269531h11.648437c11.925781-.050781 21.578125-9.699219 21.625-21.628906v-33.566407c-.007812-6.265624-5.070312-11.335937-11.332031-11.351562zm0 0"/><path d="m780.136719 511.589844c0-36.761719 29.792969-66.554688 66.546875-66.554688v-62.625c-.011719-11.34375-9.214844-20.539062-20.5625-20.5625h-657.632813c-11.351562.023438-20.546875 9.21875-20.5625 20.5625v62.625c36.753907 0 66.550781 29.792969 66.550781 66.554688 0 36.75-29.796874 66.542968-66.550781 66.542968v62.628907c.015625 11.34375 9.210938 20.535156 20.5625 20.558593h657.632813c11.347656-.023437 20.550781-9.214843 20.5625-20.558593v-62.628907c-17.644532 0-34.578125-7.011718-47.058594-19.488281-12.472656-12.484375-19.488281-29.414062-19.488281-47.054687zm-449.199219 49.90625c0 9.1875-7.449219 16.636718-16.644531 16.636718-9.179688 0-16.640625-7.449218-16.640625-16.636718v-59.65625l-4.875 4.875c-6.523438 6.304687-16.898438 6.210937-23.316406-.210938-6.421876-6.414062-6.503907-16.792968-.207032-23.320312l33.277344-33.273438c4.753906-4.761718 11.917969-6.171875 18.128906-3.601562 6.21875 2.578125 10.261719 8.632812 10.277344 15.363281zm133.09375-33.269532c0 27.558594-22.347656 49.90625-49.917969 49.90625-27.558593 0-49.902343-22.347656-49.902343-49.90625v-33.285156c0-27.558594 22.34375-49.90625 49.902343-49.90625 27.570313 0 49.917969 22.347656 49.917969 49.90625zm133.097656 0c0 27.558594-22.347656 49.90625-49.914062 49.90625-27.5625 0-49.914063-22.347656-49.914063-49.90625v-33.285156c0-27.558594 22.351563-49.90625 49.914063-49.90625 27.566406 0 49.914062 22.347656 49.914062 49.90625zm133.09375 0c0 27.558594-22.347656 49.90625-49.902344 49.90625-27.574218 0-49.917968-22.347656-49.917968-49.90625v-33.285156c0-27.558594 22.34375-49.90625 49.917968-49.90625 27.554688 0 49.902344 22.347656 49.902344 49.90625zm0 0"/><path d="m680.320312 478.3125c-9.199218 0-16.648437 7.445312-16.648437 16.628906v33.285156c0 9.1875 7.449219 16.632813 16.648437 16.632813 9.183594 0 16.628907-7.445313 16.628907-16.632813v-33.285156c0-9.183594-7.445313-16.628906-16.628907-16.628906zm0 0"/><path d="m547.214844 478.3125c-9.1875 0-16.636719 7.445312-16.636719 16.628906v33.285156c0 9.1875 7.449219 16.632813 16.636719 16.632813s16.640625-7.445313 16.640625-16.632813v-33.285156c0-9.183594-7.453125-16.628906-16.640625-16.628906zm0 0"/><path d="m885.214844 196.339844c-8.710938-2.898438-18.136719 1.804687-21.042969 10.519531l-16.636719 49.914063c-2.90625 8.730468 1.816406 18.152343 10.550782 21.054687 8.726562 2.914063 18.160156-1.816406 21.0625-10.550781l16.636718-49.902344c1.382813-4.191406 1.054688-8.757812-.929687-12.707031-1.980469-3.941407-5.449219-6.933594-9.640625-8.328125zm0 0"/><path d="m929.871094 311.941406c4.410156-.007812 8.648437-1.757812 11.761718-4.875l49.914063-49.914062c6.300781-6.527344 6.214844-16.902344-.203125-23.316406-6.414062-6.421876-16.796875-6.515626-23.320312-.210938l-49.917969 49.917969c-4.75 4.75-6.171875 11.90625-3.601563 18.125 2.574219 6.214843 8.632813 10.265625 15.367188 10.273437zm0 0"/><path d="m979.78125 345.214844h-49.910156c-9.191406 0-16.636719 7.449218-16.636719 16.632812 0 9.195313 7.445313 16.640625 16.636719 16.640625h49.910156c9.191406 0 16.636719-7.445312 16.636719-16.640625 0-9.183594-7.445313-16.632812-16.636719-16.632812zm0 0"/><path d="m131.289062 278.667969c5.34375 0 10.371094-2.578125 13.5-6.910157 3.121094-4.335937 3.976563-9.914062 2.28125-14.984374l-16.628906-49.914063c-2.898437-8.730469-12.34375-13.449219-21.066406-10.550781-8.726562 2.898437-13.449219 12.34375-10.550781 21.066406l16.644531 49.902344c2.257812 6.8125 8.636719 11.40625 15.820312 11.390625zm0 0"/><path d="m26.585938 233.625c-4.179688-4.324219-10.367188-6.058594-16.179688-4.535156-5.816406 1.519531-10.359375 6.070312-11.882812 11.878906-1.527344 5.820312.210937 12 4.539062 16.183594l49.917969 49.914062c4.171875 4.320313 10.351562 6.058594 16.171875 4.535156 5.824218-1.527343 10.359375-6.0625 11.882812-11.886718 1.523438-5.816406-.214844-12.003906-4.539062-16.171875zm0 0"/><path d="m64.738281 345.214844h-49.914062c-9.1875 0-16.636719 7.449218-16.636719 16.632812 0 9.195313 7.449219 16.640625 16.636719 16.640625h49.914062c9.191407 0 16.640625-7.445312 16.640625-16.640625 0-9.183594-7.449218-16.632812-16.640625-16.632812zm0 0"/></svg>