<svg height="512pt" viewBox="-61 0 512 512" width="512pt" xmlns="http://www.w3.org/2000/svg"><path d="m195 181c-36.214844 0-66.511719 25.808594-73.480469 60h146.960938c-6.96875-34.191406-37.265625-60-73.480469-60zm0 0"/><path d="m195 331c36.214844 0 66.511719-25.808594 73.480469-60h-146.960938c6.96875 34.191406 37.265625 60 73.480469 60zm0 0"/><path d="m0 241h91.515625c7.355469-50.75 50.730469-90 103.484375-90s96.128906 39.25 103.484375 90h91.515625v-166c-41.351562 0-75-33.648438-75-75h-45v60c0 8.289062-6.710938 15-15 15h-120c-8.289062 0-15-6.710938-15-15v-60h-45c0 41.351562-33.648438 75-75 75zm0 0"/><path d="m390 45v-30c0-8.289062-6.710938-15-15-15h-30c0 24.8125 20.1875 45 45 45zm0 0"/><path d="m150 0h90v45h-90zm0 0"/><path d="m0 437c41.351562 0 75 33.648438 75 75h45v-60c0-8.289062 6.710938-15 15-15h120c8.289062 0 15 6.710938 15 15v60h45c0-41.351562 33.648438-75 75-75v-166h-91.515625c-7.355469 50.75-50.730469 90-103.484375 90s-96.128906-39.25-103.484375-90h-91.515625zm0 0"/><path d="m150 467h90v45h-90zm0 0"/><path d="m0 15v30c24.8125 0 45-20.1875 45-45h-30c-8.289062 0-15 6.710938-15 15zm0 0"/><path d="m375 512c8.289062 0 15-6.710938 15-15v-30c-24.8125 0-45 20.1875-45 45zm0 0"/><path d="m0 497c0 8.289062 6.710938 15 15 15h30c0-24.8125-20.1875-45-45-45zm0 0"/></svg>