<svg height="1420" viewBox="-33 -67 1065.001 1065" width="1420" xmlns="http://www.w3.org/2000/svg"><path d="M414.113 478.313c-9.18 0-16.629 7.445-16.629 16.628v33.286c0 9.187 7.45 16.632 16.63 16.632 9.199 0 16.644-7.445 16.644-16.632V494.94c0-9.183-7.445-16.628-16.645-16.628zM380.84 694.598h99.824v149.73H380.84zm133.101 0h99.825v149.73H513.94zm0 186.812c.032 25.457 20.653 46.078 46.106 46.102h7.613c25.453-.024 46.078-20.645 46.106-46.102v-3.805H513.94zm-133.101 0c.031 25.457 20.656 46.078 46.105 46.102h7.618c25.457-.024 46.078-20.645 46.101-46.102v-3.805H380.84zM181.195 511.59c0-18.383-14.89-33.277-33.27-33.277H125.98c-6.261.015-11.32 5.085-11.332 11.351v33.566c.059 11.93 9.704 21.579 21.63 21.63h11.648c18.379 0 33.27-14.9 33.27-33.27zm432.571-399.3c0 64.323-52.149 116.46-116.465 116.46-64.313 0-116.461-52.137-116.461-116.46 0-64.317 52.148-116.458 116.46-116.458 64.317 0 116.466 52.14 116.466 116.457zm49.679 204.202a179.704 179.704 0 00-130.351-54.465H461.55a179.631 179.631 0 00-130.348 54.457L319.72 328.57h355.17zm205.18 161.821h-21.941c-18.375 0-33.274 14.894-33.274 33.277 0 18.37 14.899 33.27 33.274 33.27h11.648c11.926-.051 21.578-9.7 21.625-21.63v-33.566c-.008-6.266-5.07-11.336-11.332-11.352zm0 0"/><path d="M780.137 511.59c0-36.762 29.793-66.555 66.547-66.555V382.41c-.012-11.344-9.215-20.539-20.563-20.562H168.488c-11.351.023-20.547 9.218-20.562 20.562v62.625c36.754 0 66.55 29.793 66.55 66.555 0 36.75-29.796 66.543-66.55 66.543v62.629c.015 11.343 9.21 20.535 20.562 20.558h657.633c11.348-.023 20.55-9.215 20.563-20.558v-62.63a66.574 66.574 0 01-47.059-19.487 66.595 66.595 0 01-19.488-47.055zm-449.2 49.906c0 9.188-7.449 16.637-16.644 16.637-9.18 0-16.64-7.45-16.64-16.637V501.84l-4.876 4.875c-6.523 6.305-16.898 6.21-23.316-.211-6.422-6.414-6.504-16.793-.207-23.32l33.277-33.274c4.754-4.762 11.918-6.172 18.13-3.601a16.656 16.656 0 0110.276 15.363zm133.094-33.27c0 27.56-22.347 49.907-49.918 49.907-27.558 0-49.902-22.348-49.902-49.906V494.94c0-27.558 22.344-49.906 49.902-49.906 27.57 0 49.918 22.348 49.918 49.906zm133.098 0c0 27.56-22.348 49.907-49.914 49.907-27.563 0-49.914-22.348-49.914-49.906V494.94c0-27.558 22.351-49.906 49.914-49.906 27.566 0 49.914 22.348 49.914 49.906zm133.094 0c0 27.56-22.348 49.907-49.903 49.907-27.574 0-49.918-22.348-49.918-49.906V494.94c0-27.558 22.344-49.906 49.918-49.906 27.555 0 49.903 22.348 49.903 49.906zm0 0"/><path d="M680.32 478.313c-9.199 0-16.648 7.445-16.648 16.628v33.286c0 9.187 7.45 16.632 16.648 16.632 9.184 0 16.63-7.445 16.63-16.632V494.94c0-9.183-7.446-16.628-16.63-16.628zm-133.105 0c-9.188 0-16.637 7.445-16.637 16.628v33.286c0 9.187 7.45 16.632 16.637 16.632s16.64-7.445 16.64-16.632V494.94c0-9.183-7.453-16.628-16.64-16.628zm338-281.973c-8.711-2.899-18.137 1.805-21.043 10.52l-16.637 49.913c-2.906 8.73 1.817 18.153 10.55 21.055 8.728 2.914 18.161-1.816 21.063-10.55l16.637-49.903a16.662 16.662 0 00-.93-12.707 16.673 16.673 0 00-9.64-8.328zm44.656 115.601a16.67 16.67 0 0011.762-4.875l49.914-49.914c6.3-6.527 6.215-16.902-.203-23.316-6.414-6.422-16.797-6.516-23.32-.211l-49.919 49.918a16.646 16.646 0 00-3.601 18.125 16.644 16.644 0 0015.367 10.273zm49.91 33.274h-49.91c-9.191 0-16.637 7.45-16.637 16.633 0 9.195 7.446 16.64 16.637 16.64h49.91c9.192 0 16.637-7.445 16.637-16.64 0-9.184-7.445-16.633-16.637-16.633zM131.29 278.668a16.67 16.67 0 0013.5-6.91 16.631 16.631 0 002.28-14.985l-16.629-49.914c-2.898-8.73-12.343-13.449-21.066-10.55-8.727 2.898-13.45 12.343-10.55 21.066l16.644 49.902a16.624 16.624 0 0015.82 11.391zM26.586 233.625a16.64 16.64 0 00-28.063 7.344c-1.527 5.82.211 12 4.54 16.183l49.917 49.914a16.625 16.625 0 0016.172 4.536 16.629 16.629 0 0011.883-11.887 16.618 16.618 0 00-4.539-16.172zm38.152 111.59H14.824c-9.187 0-16.636 7.45-16.636 16.633 0 9.195 7.449 16.64 16.636 16.64h49.914c9.192 0 16.64-7.445 16.64-16.64 0-9.184-7.448-16.633-16.64-16.633zm0 0"/></svg>