<svg height="512pt" viewBox="-61 0 512 512" width="512pt" xmlns="http://www.w3.org/2000/svg"><path d="M195 181c-36.215 0-66.512 25.809-73.48 60h146.96c-6.968-34.191-37.265-60-73.48-60zm0 150c36.215 0 66.512-25.809 73.48-60H121.52c6.968 34.191 37.265 60 73.48 60zm0 0"/><path d="M0 241h91.516c7.355-50.75 50.73-90 103.484-90s96.129 39.25 103.484 90H390V75c-41.352 0-75-33.648-75-75h-45v60c0 8.29-6.71 15-15 15H135c-8.29 0-15-6.71-15-15V0H75c0 41.352-33.648 75-75 75zM390 45V15c0-8.29-6.71-15-15-15h-30c0 24.813 20.188 45 45 45zm0 0"/><path d="M150 0h90v45h-90zM0 437c41.352 0 75 33.648 75 75h45v-60c0-8.29 6.71-15 15-15h120c8.29 0 15 6.71 15 15v60h45c0-41.352 33.648-75 75-75V271h-91.516c-7.355 50.75-50.73 90-103.484 90s-96.129-39.25-103.484-90H0zm0 0"/><path d="M150 467h90v45h-90zM0 15v30c24.813 0 45-20.188 45-45H15C6.71 0 0 6.71 0 15zm375 497c8.29 0 15-6.71 15-15v-30c-24.813 0-45 20.188-45 45zM0 497c0 8.29 6.71 15 15 15h30c0-24.813-20.188-45-45-45zm0 0"/></svg>