<svg height="512" width="512" xmlns="http://www.w3.org/2000/svg"><path d="M136 152c-24.813 0-45-20.187-45-45s20.187-45 45-45 45 20.187 45 45-20.187 45-45 45zm45 300H91V323.213l-30-30V227c0-41.355 33.645-75 75-75s75 33.645 75 75v66.213l-30 30zm195-300c-24.813 0-45-20.187-45-45s20.187-45 45-45 45 20.187 45 45-20.187 45-45 45zm45 300h-90V323.213l-30-30V227c0-41.355 33.645-75 75-75s75 33.645 75 75v66.213l-30 30zM241 0h30v62h-30zm0 92h30v60h-30zm0 90h30v60h-30zm0 90h30v60h-30zm0 90h30v60h-30zm0 90h30v60h-30z"/></svg>