<svg height="512" viewBox="0 0 64 64" width="512" xmlns="http://www.w3.org/2000/svg"><path d="M48.677 26.723l-1.841-.779-.793 1.836 1.842.78z"/><path d="M43.946 37.692c1.956.843 4.799.484 7.604-.96 3.024-1.558 5.476-4.115 6.726-7.016 2.716-6.296.851-12.119-4.641-14.487-1.343-.58-2.688-.859-3.993-.859-4.03 0-7.679 2.669-9.73 7.425a13.382 13.382 0 00-.943 3.407c.009.1-.035.969-.128 1.283-.272 5.027 2.026 9.879 5.105 11.207zm-3.369-12.226L44.201 27l.792-1.837-3.611-1.529.779-1.842 3.624 1.534.824-1.91-3.673-1.584.792-1.837 3.673 1.584.792-1.836 1.837.792-.792 1.836 1.836.792.792-1.836 1.837.792-.792 1.837 1.836.792.792-1.836 1.837.792-.792 1.836 1.836.792-.792 1.837-1.836-.792-.797 1.849 1.835.777-.779 1.842-1.848-.783-.792 1.837 1.835.777-.779 1.842-1.848-.782-.787 1.824-1.837-.792.782-1.812-1.841-.78-.776 1.799-1.837-.792.771-1.787-1.841-.78-.765 1.775-1.837-.792.76-1.763-3.611-1.529z"/><path d="M50.282 23.001l-1.836-.792-.818 1.898 1.841.78zm1.286 7.118l.792-1.836-1.841-.78-.792 1.837zM9 15a1 1 0 011-1h3c2.206 0 4-1.794 4-4h2a5.97 5.97 0 01-1.54 4H20c2.206 0 4-1.794 4-4h2a5.97 5.97 0 01-1.54 4h9.962a8.28 8.28 0 00.015-8.222A3.542 3.542 0 0031.372 4c-.699 0-1.376.205-1.958.593l-1.859 1.239a1 1 0 01-1.109 0A10.875 10.875 0 0020.395 4H19a9.044 9.044 0 00-7.2 3.6 11.06 11.06 0 01-7.953 4.367l.698 1.048A4.865 4.865 0 009 15.156zm26 4v-3H11v3h23zm18.955 5.586l-1.836-.792-.808 1.873 1.842.779zM33 21H13v8c0 5.514 4.486 10 10 10s10-4.486 10-10zm-15 6.75c-.965 0-1.75-.785-1.75-1.75s.785-1.75 1.75-1.75 1.75.785 1.75 1.75-.785 1.75-1.75 1.75zm5 7A3.754 3.754 0 0119.25 31h1.5c0 1.241 1.009 2.25 2.25 2.25s2.25-1.009 2.25-2.25h1.5A3.754 3.754 0 0123 34.75zm5-7c-.965 0-1.75-.785-1.75-1.75s.785-1.75 1.75-1.75 1.75.785 1.75 1.75-.785 1.75-1.75 1.75zm-1 17.817V40.3c-1.253.445-2.596.7-4 .7s-2.747-.255-4-.7v5.268c2.282 2 5.718 2 8-.001zM11 27v-3h-.5c-.827 0-1.5.673-1.5 1.5s.673 1.5 1.5 1.5zM4 52v8h4V47.101A5.01 5.01 0 004 52z"/><path d="M14.603 45.779c2.008 2.567 5.114 4.114 8.397 4.114s6.389-1.547 8.397-4.114L29 45.246V46c0 .265-.105.52-.293.707-1.573 1.574-3.64 2.36-5.707 2.36s-4.134-.787-5.707-2.36A.997.997 0 0117 46v-.754zm19.698 11.724l3.96-9.18 2.754 1.188-3.96 9.18z"/><path d="M32.071 58.389a1 1 0 01.011-.765l4.602-10.669-3.19-.709C31.152 49.737 27.21 51.894 23 51.894s-8.153-2.157-10.494-5.648L10 46.802V60h25.066l-2.462-1.062a.996.996 0 01-.533-.549zM42 60v-7.696L38.681 60zm4.324-19.867c-1.155 0-2.232-.199-3.17-.604-.798-.344-1.546-.88-2.238-1.543a18.6 18.6 0 01-.969 8.873l.967.417a18.408 18.408 0 015.707-7.163c-.098.002-.201.02-.297.02z"/><circle cx="56" cy="52" r="6"/><path d="M49.714 59.778A10.022 10.022 0 0056 62v-2a7.906 7.906 0 01-5.028-1.777zm-1.492-14.064A10.022 10.022 0 0046 52h2c0-1.853.614-3.591 1.777-5.028zM35 24v3h.5c.827 0 1.5-.673 1.5-1.5s-.673-1.5-1.5-1.5z"/></svg>