<svg xmlns="http://www.w3.org/2000/svg" width="500.267" height="500.267"><ellipse cx="231.39" cy="80.887" rx="225.715" ry="58.463"/><path d="M71.445 201.519c45.102 13.252 101.904 21.06 159.945 20.551 128.078-1.123 187.947-31.016 187.949-31.018 24.361-10.313 38.244-21.743 38.244-32.15v-47.419c0-.56-.062-1.108-.146-1.649-7.918 13.171-27.504 23.042-45.553 29.713v30.067c0 4.142-3.357 7.5-7.5 7.5s-7.5-3.358-7.5-7.5v-25.067a288.296 288.296 0 01-12 3.324v36.493c0 5.523-4.477 10-10 10-5.521 0-10-4.477-10-10v-32.176c-37.459 7.073-83.588 11.25-133.494 11.25-118.6 0-215.934-23.564-226.051-53.604-.086.541-.145 1.09-.145 1.649v48.453c.001 13.847 24.768 29.391 66.251 41.583zm428.677 37.399c-7.918 13.171-27.504 23.042-45.554 29.713v30.066c0 4.143-3.356 7.5-7.5 7.5a7.499 7.499 0 01-7.5-7.5v-25.066a288.998 288.998 0 01-12 3.324v36.492c0 5.523-4.477 10-10 10-5.521 0-10-4.477-10-10v-32.176c-37.459 7.073-83.588 11.25-133.494 11.25-118.6 0-215.934-23.564-226.05-53.604-.086.541-.145 1.09-.145 1.649v48.453c0 13.848 24.768 29.393 66.25 41.584 45.102 13.252 101.904 21.059 159.945 20.551 128.077-1.123 187.946-31.017 187.948-31.019 24.361-10.313 38.244-21.743 38.244-32.149v-47.419a10.139 10.139 0 00-.144-1.649zm-273.929 180.27c-49.906 0-96.035-4.177-133.494-11.25v32.177c0 5.522-4.479 10-10 10-5.523 0-10-4.478-10-10v-36.493a288.296 288.296 0 01-12-3.324v25.066c0 4.143-3.357 7.5-7.5 7.5s-7.5-3.357-7.5-7.5v-30.066C27.65 388.627 8.064 378.756.146 365.585A10.46 10.46 0 000 367.232v47.419c0 10.407 13.883 21.837 38.244 32.15.002.002 59.871 29.895 187.949 31.018 58.042.51 114.844-7.299 159.945-20.551 41.482-12.19 66.25-27.734 66.25-41.583v-48.451c0-.561-.059-1.108-.145-1.649-10.117 30.037-107.451 53.603-226.05 53.603z"/><path d="M238.841 244.166c-58.02 1.559-114.844-7.299-159.943-20.551-11.277-3.314-21.309-6.878-29.953-10.586 4.43 31.278 103.705 56.283 225.545 56.283 124.659 0 225.715-26.175 225.715-58.464 0-11.534-12.902-22.288-35.168-31.349v1.498c0 10.931-15.306 22.991-41.99 33.699-.001.001-58.712 26.1-184.206 29.47zm-12.062 151.918c121.84 0 221.115-25.006 225.545-56.283-8.646 3.708-18.677 7.271-29.951 10.586-45.104 13.252-101.924 22.109-159.945 20.551-125.494-3.371-184.203-29.47-184.203-29.47-26.686-10.708-41.992-22.769-41.992-33.698v-1.498c-22.264 9.061-35.17 19.813-35.17 31.35-.001 32.286 101.055 58.462 225.716 58.462z"/></svg>