<svg height="512pt" viewBox="0 0 512 512" width="512pt" xmlns="http://www.w3.org/2000/svg"><path d="M469.34 42.645C405.02-21.66 290.805-12.168 214.78 63.87c-32.976 32.961-54.89 74.84-61.715 117.922-5.949 37.5-14.27 81.344-30.953 122.062l-15.531 37.93L0 448.367 63.633 512l106.582-106.582 37.93-15.531c40.648-16.657 84.52-25.004 122.066-30.969 43.078-6.824 84.96-28.738 117.918-61.711 76.027-76.027 85.547-190.227 21.21-254.562zM226.637 306.559l41.18-41.176 31.824 31.824-29.704 29.703c-16.062-3.855-30.59-10.683-43.3-20.351zm-42.715-125.067l9.652 9.653-12.14 12.14c.714-14.86-2.618 4.883 2.488-21.793zm285.11 30.547c-7.493 18.434-18.325 36.125-32.384 52.477L405.7 233.57l42.43-42.43zm.308-42.11l12.082-12.081c-.348 7.125-1.34 14.246-2.7 21.46zm-84.852 42.43l-31.828-31.824 42.43-42.43 31.824 31.825zm-53.039-53.035l-31.82-31.816 42.426-42.434 31.824 31.82zm-21.21 21.211l-42.426 42.426-31.817-31.816 42.422-42.426zm53.027-116.672l29.718-29.718c15.797 3.792 30.32 10.636 43.227 20.421L395.09 95.684zm-21.211-21.21l-9.371-9.372c7.207-1.363 14.328-2.355 21.449-2.703zm-21.211 21.21l-42.426 42.434-30.945-30.942c16.347-14.058 34.043-24.894 52.472-32.382zm-63.637 63.645l-42.422 42.426-20.957-20.957c7.656-18.762 18.574-36.477 32.352-52.497zm-42.422 84.847l31.817 31.817-41.172 41.172c-9.66-12.711-16.496-27.239-20.356-43.278zm74.238 31.817l42.426-42.426 31.828 31.82-42.425 42.43zm95.465 10.61l31.032 31.027c-16.024 13.777-33.739 24.699-52.504 32.355l-20.957-20.957zm93.36-135.786l-29.72 29.723-31.827-31.824 41.12-41.122c9.79 12.907 16.634 27.43 20.427 43.223zm-281.07 243.117l-31.481 12.89-28.3-28.3 12.89-31.476c5.511-13.47 9.926-27.137 13.898-40.793 7.14 16.336 17.028 31.226 29.785 43.984 12.82 12.82 27.914 22.547 44.352 29.695-13.785 3.996-27.574 8.442-41.145 14zm111.94-31.562l12.134-12.133 9.644 9.648c-26.504 5.07-7.074 1.79-21.777 2.485zM437 362c-41.352 0-75 33.648-75 75s33.648 75 75 75 75-33.648 75-75-33.648-75-75-75zm0 0"/></svg>