<svg xmlns="http://www.w3.org/2000/svg" viewBox="0 0 512 512"><path d="M256 107c-51.7 0-93.8 42.2-93.8 94 0 51.9 42.1 94 93.8 94 51.7 0 93.8-42.2 93.8-94s-42.1-94-93.8-94zm16 146.3c0 8.3-6.7 15-15 15s-15-6.7-15-15v-78.8h-5c-8.3 0-15-6.7-15-15s6.7-15 15-15h20c8.3 0 15 6.7 15 15v93.8z"/><path d="M444.4 241.1c9.6-10.9 20.5-23.3 20.5-39.7 0-16.3-10.7-28.7-20.3-39.6-5.4-6.2-11-12.6-12.6-17.8-1.5-4.7-.7-12.9 0-20.8 1.4-14.7 3-31.4-6.8-45-9.9-13.7-26.2-17.3-40.6-20.5-7.7-1.7-15.7-3.5-19.7-6.4-4.4-3.2-8.7-10.5-12.9-17.6-7.4-12.5-15.8-26.6-31.3-31.6-15.5-5.1-30.7 1.4-44 7.1-7.5 3.2-15.2 6.5-20.4 6.5-5.1 0-12.7-3.3-20.1-6.6-13.4-5.9-28.7-12.5-44.5-7.4-15.3 4.9-23.6 18.9-31 31.3-4.3 7.2-8.7 14.6-13.3 17.9-4.5 3.3-12.9 5.2-21.1 7-14 3.2-29.9 6.8-39.3 19.8-9.7 13.4-8.2 30-6.8 44.6.8 8 1.5 16.4 0 21.2-1.6 5-7.2 11.3-12.6 17.5-9.6 11-20.5 23.4-20.5 39.8 0 16.3 10.7 28.7 20.3 39.6 5.4 6.2 11 12.6 12.6 17.8 1.5 4.7.7 12.9 0 20.8-1.4 14.7-3 31.4 6.8 45 9.9 13.7 26.2 17.3 40.6 20.5 7.7 1.7 15.7 3.5 19.7 6.4 4.4 3.2 8.7 10.5 12.9 17.6 7.4 12.5 15.8 26.6 31.3 31.6 15.6 5.1 30.8-1.4 44.1-7.2 7.5-3.2 15.2-6.5 20.4-6.5 5.1 0 12.7 3.3 20.1 6.6 10.1 4.4 21.1 9.2 32.7 9.2 3.9 0 7.8-.5 11.8-1.8 15.3-4.9 23.6-18.9 31-31.3 4.3-7.2 8.7-14.6 13.2-17.9 4.5-3.3 12.9-5.2 21.1-7 14-3.2 29.9-6.8 39.3-19.8 9.7-13.4 8.2-30 6.8-44.6-.8-8-1.5-16.4 0-21.2 1.6-5.1 7.2-11.4 12.6-17.5zm-188.4 84c-68.3 0-123.8-55.6-123.8-124.1S187.7 77 256 77s123.8 55.6 123.8 124.1-55.5 124-123.8 124zm-15 98c-10.7 4.4-23.4 8.8-38.1 8.8-7.2 0-14.3-1.1-21-3.3-21.3-6.9-33.8-22.6-42.4-36.1V497c0 4.7 2.2 9.2 6 12 3.8 2.8 8.7 3.7 13.2 2.4L241 487v-63.9zm88.6 5.8c-6.7 2.2-13.8 3.3-21 3.3-14.5 0-27-4.3-37.6-8.7V487l82.2 24.4c1.4.4 2.8.6 4.3.6 3.2 0 6.4-1 9-3 3.8-2.8 6-7.3 6-12V392c-8.6 13.5-21.2 29.8-42.9 36.9z"/><circle cx="260" cy="206.3" r="158"/></svg>