<svg height="512pt" viewBox="0 0 512 512" width="512pt" xmlns="http://www.w3.org/2000/svg"><path d="m469.339844 42.644531c-64.320313-64.304687-178.535156-54.8125-254.558594 21.226563-32.976562 32.960937-54.890625 74.839844-61.714844 117.921875-5.949218 37.5-14.269531 81.34375-30.953125 122.0625l-15.53125 37.929687-106.582031 106.582032 63.632812 63.632812 106.582032-106.582031 37.929687-15.53125c40.648438-16.65625 84.519531-25.003907 122.066407-30.96875 43.078124-6.824219 84.960937-28.738281 117.917968-61.710938 76.027344-76.027343 85.546875-190.226562 21.210938-254.5625zm-242.703125 263.914063 41.179687-41.175782 31.824219 31.824219-29.703125 29.703125c-16.0625-3.855468-30.589844-10.683594-43.300781-20.351562zm-42.714844-125.066406 9.652344 9.652343-12.140625 12.140625c.714844-14.859375-2.617188 4.882813 2.488281-21.792968zm285.109375 30.546874c-7.492188 18.433594-18.324219 36.125-32.382812 52.476563l-30.949219-30.945313 42.429687-42.429687zm.308594-42.109374 12.082031-12.082032c-.347656 7.125-1.339844 14.246094-2.699219 21.460938zm-84.851563 42.429687-31.828125-31.824219 42.429688-42.429687 31.824218 31.824219zm-53.039062-53.035156-31.820313-31.816407 42.425782-42.433593 31.824218 31.820312zm-21.210938 21.210937-42.425781 42.425782-31.816406-31.816407 42.421875-42.425781zm53.027344-116.671875 29.71875-29.71875c15.796875 3.792969 30.320313 10.636719 43.226563 20.421875l-41.121094 41.117188zm-21.210937-21.210937-9.371094-9.371094c7.207031-1.363281 14.328125-2.355469 21.449218-2.703125zm-21.210938 21.210937-42.425781 42.433594-30.945313-30.941406c16.347656-14.058594 34.042969-24.894531 52.472656-32.382813zm-63.636719 63.644531-42.421875 42.425782-20.957031-20.957032c7.65625-18.761718 18.574219-36.476562 32.351563-52.496093zm-42.421875 84.847657 31.816406 31.816406-41.171874 41.171875c-9.660157-12.710938-16.496094-27.238281-20.355469-43.277344zm74.238282 31.816406 42.425781-42.425781 31.828125 31.820312-42.425782 42.429688zm95.464843 10.609375 31.03125 31.027344c-16.023437 13.777344-33.738281 24.699218-52.503906 32.355468l-20.957031-20.957031zm93.359375-135.785156-29.71875 29.722656-31.828125-31.824219 41.121094-41.121093c9.789063 12.90625 16.632813 27.429687 20.425781 43.222656zm-281.070312 243.117187-31.480469 12.890625-28.300781-28.300781 12.890625-31.476563c5.511719-13.46875 9.925781-27.136718 13.898437-40.792968 7.140625 16.335937 17.027344 31.226562 29.785156 43.984375 12.820313 12.820312 27.914063 22.546875 44.351563 29.695312-13.785156 3.996094-27.574219 8.441407-41.144531 14zm111.941406-31.5625 12.132812-12.132812 9.644532 9.648437c-26.503906 5.070313-7.074219 1.789063-21.777344 2.484375zm0 0"/><path d="m437 362c-41.351562 0-75 33.648438-75 75s33.648438 75 75 75 75-33.648438 75-75-33.648438-75-75-75zm0 0"/></svg>