<?xml version="1.0" encoding="iso-8859-1"?>
<!-- Generator: Adobe Illustrator 19.0.0, SVG Export Plug-In . SVG Version: 6.00 Build 0)  -->
<svg version="1.1" id="Layer_1" xmlns="http://www.w3.org/2000/svg" xmlns:xlink="http://www.w3.org/1999/xlink" x="0px" y="0px"
	 viewBox="0 0 512 512" style="enable-background:new 0 0 512 512;" xml:space="preserve">
<g>
	<g>
		<path d="M414.812,200.787c29.039,14.577,61.482,23.32,95.79,24.72C496.605,107.805,402.572,14.32,284.617,1.165
			c1.497,31.165,9.06,60.765,21.541,87.639l28.079-9.361c11.748-3.919,24.451,2.434,28.368,14.184
			c3.916,11.75-2.434,24.451-14.184,28.368l-18.989,6.33c13.124,18.026,28.73,34.131,46.319,47.805l5.814-17.443
			c3.917-11.748,16.618-18.103,28.368-14.182c11.75,3.917,18.099,16.616,14.184,28.368L414.812,200.787z"/>
	</g>
</g>
<g>
	<g>
		<path d="M203.664,415.464l-25.723,8.574c-2.353,0.783-4.745,1.156-7.096,1.156c-9.391,0-18.14-5.943-21.272-15.34
			c-3.917-11.75,2.432-24.451,14.182-28.368l15.658-5.219c-13.258-17.277-28.922-32.609-46.493-45.497l-5.858,17.572
			c-3.132,9.398-11.883,15.341-21.274,15.341c-2.35,0-4.741-0.372-7.094-1.156c-11.75-3.917-18.101-16.618-14.184-28.368
			l8.893-26.678c-28.069-12.937-59.189-20.333-91.957-20.806c14.061,117.281,107.597,210.463,225.041,223.991
			C225.839,476.604,217.715,444.34,203.664,415.464z"/>
	</g>
</g>
<g>
	<g>
		<path d="M400.505,243.704l-1.393,4.182c-3.134,9.397-11.883,15.34-21.274,15.34c-2.35,0-4.742-0.372-7.094-1.156
			c-11.75-3.917-18.099-16.618-14.184-28.368l4.304-12.912c-29.974-20.75-55.731-47.17-75.71-77.704l-11.747,3.916
			c-2.352,0.783-4.744,1.156-7.094,1.156c-9.391,0-18.14-5.943-21.274-15.34c-3.917-11.75,2.434-24.451,14.184-28.368l4.156-1.386
			C249.346,71.368,241.018,36.61,239.685,0.096C110.56,8.25,7.082,112.395,0,241.802c38.246,0.262,74.647,8.417,107.658,22.92
			l1.858-5.575c3.917-11.75,16.615-18.099,28.368-14.184c11.75,3.917,18.101,16.618,14.184,28.368l-4.378,13.133
			c30.074,19.744,56.037,45.249,76.303,74.944l14.774-4.925c11.751-3.92,24.451,2.434,28.368,14.184
			c3.916,11.75-2.434,24.451-14.184,28.368l-6.441,2.147c15.552,33.786,24.397,71.262,24.848,110.723
			C400.83,504.221,504.746,400.04,512,270.457C472.226,269.291,434.505,259.807,400.505,243.704z"/>
	</g>
</g>
<g>
</g>
<g>
</g>
<g>
</g>
<g>
</g>
<g>
</g>
<g>
</g>
<g>
</g>
<g>
</g>
<g>
</g>
<g>
</g>
<g>
</g>
<g>
</g>
<g>
</g>
<g>
</g>
<g>
</g>
</svg>
