<svg id="Capa_1" enable-background="new 0 0 512 512" height="512" viewBox="0 0 512 512" width="512" xmlns="http://www.w3.org/2000/svg"><g><path d="m457.664 15.838c-10.305-10.218-23.962-15.838-38.476-15.838-.066 0-.132.001-.198.001-20.921.074-39.081 11.953-48.189 29.278v-14.3c0-8.272-6.716-14.979-15-14.979h-199.602c-8.284 0-15 6.706-15 14.979v14.299c-9.107-17.325-27.267-29.203-48.189-29.277-.067 0-.131-.001-.198-.001-14.513 0-28.171 5.62-38.476 15.838-10.351 10.263-16.08 23.939-16.132 38.559v.116c0 37.185 10.035 72.189 29.02 101.227 18.878 28.875 45.547 49.341 75.046 57.615 8.41 2.39 13.305 11.166 10.912 19.565-2.393 8.398-11.178 13.286-19.593 10.896-7.963-2.262-16.265 2.35-18.532 10.308-2.267 7.957 2.354 16.242 10.322 18.506 4.18 1.188 8.388 1.754 12.534 1.753 18.023-.002 34.778-10.713 42.089-27.582 3.893 3.428 8.036 6.625 12.431 9.543 5.867 3.895 12.081 7.24 18.566 9.995v17.071h90v-17.07c6.485-2.755 12.7-6.1 18.566-9.995 4.395-2.918 8.537-6.115 12.431-9.543 7.311 16.872 24.063 27.583 42.089 27.582 4.143 0 8.357-.566 12.534-1.753 7.968-2.264 12.589-10.549 10.322-18.506-2.268-7.957-10.569-12.572-18.532-10.308-8.411 2.39-17.199-2.498-19.593-10.897-2.393-8.398 2.502-17.175 10.863-19.551 29.548-8.288 56.217-28.754 75.095-57.629 18.985-29.038 29.021-64.042 29.021-101.227v-.169c-.051-14.567-5.78-28.243-16.131-38.506zm-365.319 123.526c-15.568-23.811-24.141-53.945-24.141-84.85v-.064c.023-6.565 2.605-12.728 7.271-17.354 4.665-4.626 10.838-7.182 17.429-7.137 13.572.048 24.575 11.113 24.527 24.666-.029 8.272 6.663 15.002 14.947 15.031h.054c3.276 0 6.299-1.062 8.768-2.844v94.074c0 7.203.672 14.309 1.974 21.241-19.697-7.488-37.539-22.436-50.829-42.763zm178.655 46.004c0 8.272-6.716 14.979-15 14.979s-15-6.706-15-14.979v-78.54h-5.017c-8.284 0-15-6.706-15-14.979s6.716-14.979 15-14.979h20.017c8.284 0 15 6.706 15 14.979zm172.796-130.855c0 30.906-8.573 61.04-24.141 84.85-13.282 20.315-31.111 35.257-50.827 42.758 1.302-6.931 1.973-14.035 1.973-21.237v-94.073c2.468 1.782 5.491 2.843 8.768 2.843h.054c8.284-.029 14.977-6.759 14.947-15.031-.048-13.553 10.955-24.618 24.526-24.666h.089c6.541 0 12.696 2.533 17.34 7.137 4.665 4.626 7.247 10.789 7.271 17.302z"/><path d="m395.631 392.706h-279.262c-8.284 0-15 6.706-15 14.979v44.401h309.263v-44.401c-.001-8.273-6.717-14.979-15.001-14.979z"/><path d="m415.631 482.043h-319.262c-8.284 0-15 6.706-15 14.979s6.716 14.978 15 14.978h319.263c8.284 0 15-6.706 15-14.979s-6.717-14.978-15.001-14.978z"/><path d="m211 328.975c-14.29 8.142-25.874 19.885-33.815 33.773h157.629c-7.941-13.887-19.524-25.63-33.815-33.773v-15.607h-90v15.607z"/><path d="m206 283.411c-8.284 0-15 6.706-15 14.979s6.716 14.979 15 14.979h5v-29.957h-5z"/><path d="m306 313.369c8.284 0 15-6.706 15-14.979s-6.716-14.979-15-14.979h-5v29.957h5z"/></g></svg>