<svg id="Layer_5" enable-background="new 0 0 64 64" height="512" viewBox="0 0 64 64" width="512" xmlns="http://www.w3.org/2000/svg"><g><path d="m7 41c0-1.373-.251-2.668-.693-3.727-.816 1.024-1.307 2.318-1.307 3.727s.491 2.703 1.307 3.727c.442-1.059.693-2.354.693-3.727z"/><path d="m20 49h-16c-.552 0-1 .449-1 1v11h18v-11c0-.551-.448-1-1-1z"/><path d="m37 27.586 1.458-1.458c-.284-.734-.671-1.414-1.146-2.026l-1.898 1.898z"/><path d="m38.972 29.557c.013-.185.028-.369.028-.557s-.015-.372-.028-.557l-.558.557z"/><path d="m29.879 30.879h2.243v2.243h-2.243z" transform="matrix(.707 -.707 .707 .707 -13.548 31.294)"/><path d="m26.878 27.878h2.243v2.243h-2.243z" transform="matrix(.707 -.707 .707 .707 -12.305 28.295)"/><path d="m29.879 24.879h2.243v2.243h-2.243z" transform="matrix(.707 -.707 .707 .707 -9.305 29.537)"/><path d="m59 47c0-1.409-.491-2.703-1.307-3.727-.442 1.059-.693 2.354-.693 3.727s.251 2.668.693 3.727c.816-1.024 1.307-2.318 1.307-3.727z"/><path d="m53 41c-1.148 0-2.218.33-3.131.891.722 1.418 1.131 3.22 1.131 5.109s-.409 3.691-1.131 5.109c.913.561 1.983.891 3.131.891s2.218-.33 3.131-.891c-.722-1.418-1.131-3.22-1.131-5.109s.409-3.691 1.131-5.109c-.913-.561-1.983-.891-3.131-.891z"/><path d="m56.984 7.602c-.193-2.44-2.146-4.393-4.586-4.586l-7.984 7.984 4.586 4.586z"/><path d="m32.879 27.879h2.243v2.243h-2.243z" transform="matrix(.707 -.707 .707 .707 -10.548 32.537)"/><path d="m17 41c0-1.409-.491-2.703-1.307-3.727-.442 1.059-.693 2.354-.693 3.727s.251 2.668.693 3.727c.816-1.024 1.307-2.318 1.307-3.727z"/><path d="m11 47c1.148 0 2.218-.33 3.131-.891-.722-1.418-1.131-3.22-1.131-5.109s.409-3.691 1.131-5.109c-.913-.561-1.983-.891-3.131-.891s-2.218.33-3.131.891c.722 1.418 1.131 3.22 1.131 5.109s-.409 3.691-1.131 5.109c.913.561 1.983.891 3.131.891z"/><path d="m48.307 50.727c.442-1.059.693-2.354.693-3.727s-.251-2.668-.693-3.727c-.816 1.024-1.307 2.318-1.307 3.727s.491 2.703 1.307 3.727z"/><path d="m37 30.414-1.586 1.586 1.898 1.898c.475-.611.863-1.292 1.146-2.026z"/><path d="m32.414 35 1.458 1.458c.734-.284 1.414-.671 2.026-1.146l-1.898-1.898z"/><path d="m30.442 36.972c.185.013.37.028.558.028s.373-.015.558-.028l-.558-.558z"/><path d="m60 55h-16c-.552 0-1 .449-1 1v5h18v-5c0-.551-.448-1-1-1z"/><path d="m43.006 32.452 4.856-15.176-5.138-5.138-15.176 4.856c-5.112 1.636-8.548 6.342-8.548 11.711 0 6.779 5.516 12.295 12.295 12.295 5.368 0 10.074-3.435 11.711-8.548zm-1.006-16.452c1.105 0 2 .895 2 2s-.895 2-2 2-2-.895-2-2 .895-2 2-2zm-21 13c0-5.514 4.486-10 10-10s10 4.486 10 10-4.486 10-10 10-10-4.486-10-10z"/><path d="m40 43h-16c-.552 0-1 .449-1 1v6 11h18v-5-12c0-.551-.448-1-1-1z"/><path d="m26.102 35.312c.611.475 1.292.862 2.025 1.146l1.459-1.458-1.586-1.586z"/><path d="m23.028 28.443c-.013.185-.028.369-.028.557s.015.372.028.557l.558-.557z"/><path d="m26.586 26-1.898-1.898c-.476.611-.863 1.292-1.146 2.026l1.458 1.458z"/><path d="m25 30.414-1.458 1.458c.284.734.671 1.415 1.146 2.026l1.898-1.898z"/><path d="m31.558 21.028c-.185-.013-.37-.028-.558-.028s-.373.015-.558.028l.558.558z"/><path d="m29.586 23-1.458-1.458c-.734.284-1.414.671-2.025 1.146l1.897 1.898z"/><path d="m35.898 22.689c-.611-.475-1.292-.863-2.026-1.146l-1.458 1.457 1.586 1.586z"/></g></svg>