<svg id="Layer_1_1_" enable-background="new 0 0 64 64" height="512" viewBox="0 0 64 64" width="512" xmlns="http://www.w3.org/2000/svg"><path d="m48.677 26.723-1.841-.779-.793 1.836 1.842.78z"/><path d="m43.946 37.692c1.956.843 4.799.484 7.604-.96 3.024-1.558 5.476-4.115 6.726-7.016 2.716-6.296.851-12.119-4.641-14.487-1.343-.58-2.688-.859-3.993-.859-4.03 0-7.679 2.669-9.73 7.425-.476 1.103-.777 2.252-.943 3.407.009.1-.035.969-.128 1.283-.272 5.027 2.026 9.879 5.105 11.207zm-3.369-12.226 3.624 1.534.792-1.837-3.611-1.529.779-1.842 3.624 1.534.824-1.91-3.673-1.584.792-1.837 3.673 1.584.792-1.836 1.837.792-.792 1.836 1.836.792.792-1.836 1.837.792-.792 1.837 1.836.792.792-1.836 1.837.792-.792 1.836 1.836.792-.792 1.837-1.836-.792-.797 1.849 1.835.777-.779 1.842-1.848-.783-.792 1.837 1.835.777-.779 1.842-1.848-.782-.787 1.824-1.837-.792.782-1.812-1.841-.78-.776 1.799-1.837-.792.771-1.787-1.841-.78-.765 1.775-1.837-.792.76-1.763-3.611-1.529z"/><path d="m50.282 23.001-1.836-.792-.818 1.898 1.841.78z"/><path d="m51.568 30.119.792-1.836-1.841-.78-.792 1.837z"/><path d="m9 15c0-.552.448-1 1-1h3c2.206 0 4-1.794 4-4h2c0 1.538-.586 2.937-1.54 4h2.54c2.206 0 4-1.794 4-4h2c0 1.538-.586 2.937-1.54 4h9.962c1.457-2.54 1.472-5.673.015-8.222-.628-1.096-1.802-1.778-3.065-1.778-.699 0-1.376.205-1.958.593l-1.859 1.239c-.336.224-.773.224-1.109 0-1.799-1.199-3.891-1.832-6.051-1.832h-1.395c-2.818 0-5.509 1.346-7.2 3.6-1.896 2.528-4.823 4.122-7.953 4.367l.698 1.048c.99 1.485 2.713 2.29 4.455 2.141z"/><path d="m35 19v-3h-24v3h1 22z"/><path d="m53.955 24.586-1.836-.792-.808 1.873 1.842.779z"/><path d="m33 21h-20v8c0 5.514 4.486 10 10 10s10-4.486 10-10zm-15 6.75c-.965 0-1.75-.785-1.75-1.75s.785-1.75 1.75-1.75 1.75.785 1.75 1.75-.785 1.75-1.75 1.75zm5 7c-2.068 0-3.75-1.682-3.75-3.75h1.5c0 1.241 1.009 2.25 2.25 2.25s2.25-1.009 2.25-2.25h1.5c0 2.068-1.682 3.75-3.75 3.75zm5-7c-.965 0-1.75-.785-1.75-1.75s.785-1.75 1.75-1.75 1.75.785 1.75 1.75-.785 1.75-1.75 1.75z"/><path d="m27 45.567v-5.267c-1.253.445-2.596.7-4 .7s-2.747-.255-4-.7v5.268c2.282 2 5.718 2 8-.001z"/><path d="m11 27v-3h-.5c-.827 0-1.5.673-1.5 1.5s.673 1.5 1.5 1.5z"/><path d="m4 52v8h4v-12.899c-2.279.465-4 2.485-4 4.899z"/><path d="m14.603 45.779c2.008 2.567 5.114 4.114 8.397 4.114s6.389-1.547 8.397-4.114l-2.397-.533v.754c0 .265-.105.52-.293.707-1.573 1.574-3.64 2.36-5.707 2.36s-4.134-.787-5.707-2.36c-.188-.187-.293-.442-.293-.707v-.754z"/><path d="m32.672 52.001h10v3h-10z" transform="matrix(.396 -.918 .918 .396 -26.374 66.903)"/><path d="m32.071 58.389c-.098-.247-.094-.521.011-.765l4.602-10.669-3.19-.709c-2.342 3.491-6.284 5.648-10.494 5.648s-8.153-2.157-10.494-5.648l-2.506.556v13.198h25.066l-2.462-1.062c-.244-.105-.436-.303-.533-.549z"/><path d="m42 60v-7.696l-3.319 7.696z"/><path d="m46.324 40.133c-1.155 0-2.232-.199-3.17-.604-.798-.344-1.546-.88-2.238-1.543.401 2.983.071 6.042-.969 8.873l.967.417c1.279-2.842 3.231-5.295 5.707-7.163-.098.002-.201.02-.297.02z"/><circle cx="56" cy="52" r="6"/><path d="m49.714 59.778c1.771 1.433 4.003 2.222 6.286 2.222v-2c-1.853 0-3.591-.614-5.028-1.777z"/><path d="m48.222 45.714c-1.433 1.771-2.222 4.003-2.222 6.286h2c0-1.853.614-3.591 1.777-5.028z"/><path d="m35 24v3h.5c.827 0 1.5-.673 1.5-1.5s-.673-1.5-1.5-1.5z"/></svg>